<svg width="290" height="306" viewBox="0 0 290 306" fill="none" xmlns="http://www.w3.org/2000/svg">
<g filter="url(#filter0_d)">
<rect width="286" height="298" rx="10" fill="black"/>
<rect x="0.5" y="0.5" width="285" height="297" rx="9.5" stroke="black"/>
</g>
<path d="M108.565 136.176C108.565 138.352 108.181 140.432 107.413 142.416C106.645 144.4 105.557 146.32 104.149 148.176C102.741 150.032 101.077 151.856 99.1573 153.648C97.3013 155.376 95.2533 157.072 93.0133 158.736C90.6453 160.528 87.8933 162.256 84.7573 163.92C81.6213 165.584 78.4533 167.056 75.2533 168.336C72.1173 169.68 69.1412 170.736 66.3252 171.504C63.5092 172.272 61.2372 172.656 59.5092 172.656C58.3572 172.656 57.5252 172.496 57.0132 172.176C56.4372 171.92 56.1492 171.28 56.1492 170.256C56.1492 169.552 56.4052 168.72 56.9172 167.76C57.4292 166.8 57.9412 166.32 58.4532 166.32C58.9652 166.32 59.3492 166.48 59.6052 166.8C59.7972 167.12 59.8932 167.472 59.8932 167.856C59.8932 168.048 59.8932 168.208 59.8932 168.336C59.8292 168.464 59.7972 168.56 59.7972 168.624V168.816C62.2292 168.56 65.4933 167.792 69.5892 166.512C73.6213 165.296 78.4533 163.152 84.0853 160.08C86.5173 158.736 88.9173 157.168 91.2853 155.376C93.6533 153.52 95.7653 151.568 97.6213 149.52C99.5413 147.408 101.077 145.232 102.229 142.992C103.381 140.688 103.957 138.448 103.957 136.272C103.957 134.736 103.157 133.168 101.557 131.568C100.021 129.904 98.0373 128.368 95.6053 126.96C93.2373 125.488 90.6453 124.24 87.8293 123.216C85.0133 122.128 82.3893 121.392 79.9573 121.008C80.0213 121.328 80.1173 122.128 80.2453 123.408C80.3733 124.624 80.5653 126.064 80.8213 127.728C81.0773 129.392 81.3653 131.184 81.6853 133.104C82.0693 134.96 82.4853 136.688 82.9333 138.288C83.4453 140.08 83.7653 141.424 83.8932 142.32C84.0853 143.152 84.2133 143.856 84.2773 144.432C84.3413 145.072 84.4373 145.904 84.5653 146.928C84.7573 147.888 84.8853 148.912 84.9493 150C85.0773 151.024 85.1733 152.016 85.2373 152.976C85.3653 153.872 85.4293 154.576 85.4293 155.088C85.4293 155.664 85.3013 156.272 85.0453 156.912C84.8533 157.552 84.5973 157.872 84.2773 157.872C83.5093 157.872 82.9653 157.616 82.6453 157.104C82.3893 156.528 82.1333 155.6 81.8773 154.32C81.6853 152.976 81.4293 151.248 81.1093 149.136C80.7893 147.024 80.1813 144.432 79.2853 141.36C78.0053 137.072 77.1093 133.04 76.5973 129.264C76.0853 125.424 75.7653 122.384 75.6373 120.144C75.6373 120.144 75.4773 120.144 75.1573 120.144C74.9013 120.08 74.5173 120.048 74.0053 120.048C73.5573 120.048 73.0133 120.048 72.3733 120.048C71.7973 119.984 71.2533 119.952 70.7413 119.952C69.6533 119.952 68.6612 120.176 67.7652 120.624C66.8692 121.008 66.1332 121.456 65.5572 121.968C64.9172 122.48 64.4052 122.96 64.0212 123.408C63.5732 123.792 63.2852 123.984 63.1572 123.984C62.7092 123.984 62.1012 123.888 61.3332 123.696C60.5012 123.44 60.0852 122.992 60.0852 122.352C60.0852 121.52 60.5012 120.688 61.3332 119.856C62.1012 118.96 63.0612 118.192 64.2132 117.552C65.3652 116.848 66.6132 116.304 67.9572 115.92C69.3012 115.472 70.5493 115.248 71.7013 115.248C73.6213 115.248 75.8613 115.504 78.4213 116.016C80.9813 116.528 83.6053 117.232 86.2933 118.128C89.0453 119.024 91.7333 120.112 94.3573 121.392C97.0453 122.672 99.4453 124.08 101.557 125.616C103.669 127.152 105.365 128.816 106.645 130.608C107.925 132.4 108.565 134.256 108.565 136.176ZM161.965 151.248C161.965 152.464 161.229 153.36 159.757 153.936C158.285 154.512 156.557 155.12 154.573 155.76C152.653 156.336 150.797 156.88 149.005 157.392C147.213 157.84 145.613 158.288 144.205 158.736C142.861 159.12 142.029 159.408 141.709 159.6C141.709 159.728 141.709 159.888 141.709 160.08C141.709 160.272 141.741 160.464 141.805 160.656L142.093 162.96C142.093 163.536 141.997 163.984 141.805 164.304C141.677 164.624 141.357 164.784 140.845 164.784C140.269 164.784 139.853 164.624 139.597 164.304C139.405 163.92 139.213 163.504 139.021 163.056C138.893 162.544 138.765 162.032 138.637 161.52C138.573 161.008 138.413 160.624 138.156 160.368C138.029 160.368 137.517 160.496 136.621 160.752C135.725 161.008 134.573 161.328 133.165 161.712C131.821 162.096 130.285 162.544 128.557 163.056C126.893 163.504 125.261 163.92 123.661 164.304C122.061 164.688 120.557 165.008 119.148 165.264C117.741 165.52 116.653 165.648 115.885 165.648C114.157 165.648 113.293 165.104 113.293 164.016C113.293 163.184 113.517 162.576 113.965 162.192C114.477 161.808 115.053 161.52 115.693 161.328C115.821 161.264 116.429 161.104 117.517 160.848C118.669 160.592 120.045 160.304 121.645 159.984C123.245 159.6 124.941 159.184 126.733 158.736C128.589 158.288 130.285 157.872 131.821 157.488C133.421 157.104 134.701 156.752 135.661 156.432C136.685 156.112 137.197 155.888 137.197 155.76C137.197 155.376 137.037 154.672 136.717 153.648C136.461 152.624 136.205 151.664 135.949 150.768L135.373 148.848C134.477 144.752 133.773 140.624 133.261 136.464C132.749 132.304 132.333 128.208 132.013 124.176C131.885 124.048 131.725 123.984 131.533 123.984C131.213 123.984 130.381 124.304 129.037 124.944C127.693 125.584 126.253 126.288 124.717 127.056C123.181 127.76 121.741 128.432 120.397 129.072C119.117 129.712 118.349 130.032 118.093 130.032C117.645 130.032 117.197 129.84 116.749 129.456C116.365 129.072 116.173 128.688 116.173 128.304C116.173 127.792 116.589 127.216 117.421 126.576C118.253 125.872 119.277 125.168 120.493 124.464C121.773 123.696 123.149 122.992 124.621 122.352C126.157 121.648 127.597 121.04 128.941 120.528C130.349 119.952 131.533 119.504 132.493 119.184C133.517 118.864 134.189 118.704 134.509 118.704C135.021 118.704 135.693 118.608 136.525 118.416C137.357 118.224 138.253 118 139.213 117.744C140.173 117.488 141.133 117.264 142.093 117.072C143.117 116.88 144.013 116.784 144.781 116.784C145.613 116.784 146.029 117.072 146.029 117.648C146.029 117.968 145.901 118.224 145.645 118.416L142.861 119.184C142.157 119.376 141.389 119.6 140.557 119.856C139.789 120.048 139.053 120.304 138.349 120.624C137.709 120.88 137.165 121.2 136.717 121.584C136.333 121.904 136.141 122.256 136.141 122.64C136.141 124.24 136.301 126.352 136.621 128.976C137.005 131.536 137.421 134.32 137.869 137.328C138.381 140.272 138.925 143.28 139.501 146.352C140.077 149.424 140.557 152.304 140.941 154.992L158.125 150.576C158.509 150.512 158.893 150.416 159.277 150.288C159.597 150.16 159.917 150.064 160.237 150C160.557 149.936 160.845 149.904 161.101 149.904C161.677 149.904 161.965 150.352 161.965 151.248ZM212.418 154.224C212.418 156.4 211.81 158.256 210.594 159.792C209.442 161.328 207.426 162.096 204.546 162.096C202.562 162.096 200.546 161.744 198.498 161.04C196.514 160.336 194.562 159.408 192.642 158.256C190.722 157.104 188.866 155.76 187.074 154.224C185.346 152.688 183.778 151.088 182.37 149.424C182.242 150 182.05 150.832 181.794 151.92C181.538 153.008 181.218 154.096 180.834 155.184C180.45 156.272 180.002 157.232 179.49 158.064C179.042 158.832 178.562 159.216 178.05 159.216C177.218 159.216 176.29 158.8 175.266 157.968C174.306 157.136 173.314 156.048 172.29 154.704C171.33 153.296 170.37 151.696 169.41 149.904C168.514 148.112 167.714 146.256 167.01 144.336C165.154 139.024 163.97 134.864 163.458 131.856C162.946 128.784 162.69 127.12 162.69 126.864C162.69 126.48 162.754 126.128 162.882 125.808C163.01 125.488 163.298 125.328 163.746 125.328C164.45 125.328 164.962 125.552 165.282 126C165.666 126.384 165.922 126.896 166.05 127.536C166.37 128.88 166.786 130.448 167.298 132.24C167.874 133.968 168.482 135.76 169.122 137.616C169.826 139.472 170.53 141.296 171.234 143.088C172.002 144.816 172.738 146.384 173.442 147.792C174.146 149.2 174.818 150.352 175.458 151.248C176.098 152.08 176.642 152.496 177.09 152.496C177.538 152.496 177.858 152.144 178.05 151.44C178.306 150.672 178.498 149.808 178.626 148.848C178.754 147.888 178.818 146.96 178.818 146.064C178.882 145.168 178.914 144.56 178.914 144.24C178.594 143.664 178.338 142.992 178.146 142.224C178.018 141.456 177.954 140.816 177.954 140.304C177.954 139.472 178.146 138.768 178.53 138.192C178.978 137.616 179.394 137.328 179.778 137.328C180.034 137.328 180.194 137.36 180.258 137.424C180.386 137.488 180.546 137.552 180.738 137.616C180.93 137.616 181.09 137.616 181.218 137.616C181.346 137.552 181.506 137.52 181.698 137.52C181.826 137.52 181.954 137.584 182.082 137.712C182.274 137.776 182.466 138.032 182.658 138.48C183.49 140.656 184.674 142.896 186.21 145.2C187.746 147.504 189.474 149.584 191.394 151.44C193.314 153.296 195.394 154.832 197.634 156.048C199.874 157.264 202.146 157.872 204.45 157.872C205.282 157.872 206.05 157.616 206.754 157.104C207.458 156.528 207.81 155.792 207.81 154.896C207.81 152.208 207.522 149.456 206.946 146.64C206.434 143.824 205.698 140.944 204.738 138C203.842 135.056 202.786 132.08 201.57 129.072C200.354 126 199.106 122.864 197.826 119.664C196.738 116.976 195.682 114.864 194.658 113.328C193.698 111.728 192.834 110.48 192.066 109.584C191.362 108.624 190.786 107.856 190.338 107.28C189.89 106.64 189.666 105.872 189.666 104.976C189.666 103.888 190.05 103.088 190.818 102.576C191.65 102.064 192.514 101.808 193.41 101.808C193.922 101.808 194.498 102.32 195.138 103.344C195.778 104.304 196.45 105.584 197.154 107.184C197.858 108.72 198.562 110.448 199.266 112.368C199.97 114.288 200.674 116.208 201.378 118.128C202.402 120.944 203.554 123.984 204.834 127.248C206.114 130.448 207.298 133.68 208.386 136.944C209.538 140.144 210.498 143.248 211.266 146.256C212.034 149.264 212.418 151.92 212.418 154.224Z" fill="#C22F2F"/>
<defs>
<filter id="filter0_d" x="-4" y="0" width="294" height="306" filterUnits="userSpaceOnUse" color-interpolation-filters="sRGB">
<feFlood flood-opacity="0" result="BackgroundImageFix"/>
<feColorMatrix in="SourceAlpha" type="matrix" values="0 0 0 0 0 0 0 0 0 0 0 0 0 0 0 0 0 0 127 0"/>
<feOffset dy="4"/>
<feGaussianBlur stdDeviation="2"/>
<feColorMatrix type="matrix" values="0 0 0 0 0 0 0 0 0 0 0 0 0 0 0 0 0 0 0.25 0"/>
<feBlend mode="normal" in2="BackgroundImageFix" result="effect1_dropShadow"/>
<feBlend mode="normal" in="SourceGraphic" in2="effect1_dropShadow" result="shape"/>
</filter>
</defs>
</svg>
